<svg id="beeproger_Logo" xmlns="http://www.w3.org/2000/svg" width="128.151" height="75.621" viewBox="0 0 128.151 75.621">
  <circle id="Ellipse_9" data-name="Ellipse 9" cx="3.668" cy="3.668" r="3.668" transform="translate(120.816 56.968)" fill="#ea4759"/>
  <g id="Group_21" data-name="Group 21">
    <g id="Group_20" data-name="Group 20">
      <path id="Path_52" data-name="Path 52" d="M236.91,20.268a11.009,11.009,0,0,0-3.734-4.4,9.631,9.631,0,0,0-5.468-1.467,8.125,8.125,0,0,0-4.8,1.334,6.8,6.8,0,0,0-2.934,3.468V14.8h-7.6V44.008a18.037,18.037,0,0,1,3.868-.533,16.555,16.555,0,0,1,3.6.4V34.806a7.493,7.493,0,0,0,2.934,3.468,9.211,9.211,0,0,0,4.8,1.334,10.812,10.812,0,0,0,5.468-1.467,10.056,10.056,0,0,0,3.734-4.4,14.892,14.892,0,0,0,1.334-6.669A12.239,12.239,0,0,0,236.91,20.268Zm-7.736,11.2a5.474,5.474,0,0,1-7.736,0,5.883,5.883,0,0,1-1.467-4.4,6.481,6.481,0,0,1,1.467-4.4,5.13,5.13,0,0,1,3.868-1.6,4.933,4.933,0,0,1,3.868,1.6,6.481,6.481,0,0,1,1.467,4.4A6.481,6.481,0,0,1,229.175,31.472Z" transform="translate(-127.813 -6.664)" fill="#fff"/>
      <g id="Group_18" data-name="Group 18" transform="translate(46.146 38.944)">
        <path id="Path_53" data-name="Path 53" d="M201.975,38.2v4.4a7.057,7.057,0,0,0-3.068-3.468,9.212,9.212,0,0,0-4.8-1.334,10.812,10.812,0,0,0-5.468,1.467,10.056,10.056,0,0,0-3.734,4.4,14.892,14.892,0,0,0-1.334,6.669,14.892,14.892,0,0,0,1.334,6.669,11.009,11.009,0,0,0,3.734,4.4,9.631,9.631,0,0,0,5.468,1.467,8.125,8.125,0,0,0,4.8-1.334,7.766,7.766,0,0,0,3.068-3.468V62.34c0,2-.533,3.468-1.467,4.268a5.144,5.144,0,0,1-3.734,1.334,6.955,6.955,0,0,1-3.068-.667l-4.935,4.935a14.561,14.561,0,0,0,8.4,2.267,13.507,13.507,0,0,0,6.8-1.6,9.129,9.129,0,0,0,4-4.4,13.355,13.355,0,0,0,1.334-6.135V38.2Zm-1.467,16.671a5.13,5.13,0,0,1-3.868,1.6,4.933,4.933,0,0,1-3.868-1.6,6.481,6.481,0,0,1-1.467-4.4,6.481,6.481,0,0,1,1.467-4.4,5.474,5.474,0,0,1,7.736,0,6.481,6.481,0,0,1,1.467,4.4A6.481,6.481,0,0,1,200.508,54.872Z" transform="translate(-183.57 -37.8)" fill="#fff"/>
      </g>
      <g id="Group_19" data-name="Group 19">
        <path id="Path_54" data-name="Path 54" d="M156.439,36.741a7.493,7.493,0,0,0,2.934,3.468,9.211,9.211,0,0,0,4.8,1.334,10.812,10.812,0,0,0,5.468-1.467,10.057,10.057,0,0,0,3.734-4.4,14.892,14.892,0,0,0,1.334-6.669,14.892,14.892,0,0,0-1.334-6.669,11.009,11.009,0,0,0-3.734-4.4,9.631,9.631,0,0,0-5.468-1.467,8.125,8.125,0,0,0-4.8,1.334,6.8,6.8,0,0,0-2.934,3.468V8.6H148.97V41.276h7.6V36.741Zm1.6-12.137a5.13,5.13,0,0,1,3.868-1.6,4.933,4.933,0,0,1,3.868,1.6,6.481,6.481,0,0,1,1.467,4.4,6.481,6.481,0,0,1-1.467,4.4,5.474,5.474,0,0,1-7.736,0,5.883,5.883,0,0,1-1.467-4.4A5.4,5.4,0,0,1,158.039,24.6Z" transform="translate(-148.97 -8.6)" fill="#fff"/>
        <path id="Path_55" data-name="Path 55" d="M188.742,30.838a20.034,20.034,0,0,1-2.667,1.867,5.846,5.846,0,0,1-3.068.8,6.353,6.353,0,0,1-3.868-1.2,6.175,6.175,0,0,1-1.467-4h17.072a13.867,13.867,0,0,0,.267-2,13.581,13.581,0,0,0-1.467-6.268,10.943,10.943,0,0,0-4.268-4.268,14.7,14.7,0,0,0-12.8,0,11.623,11.623,0,0,0-4.4,4.4,13.339,13.339,0,0,0-1.6,6.669,13.339,13.339,0,0,0,1.6,6.669,11.623,11.623,0,0,0,4.4,4.4,14.912,14.912,0,0,0,7.069,1.467,13.99,13.99,0,0,0,5.868-1.2,14.776,14.776,0,0,0,4-2.934Zm-10.936-5.6a5.072,5.072,0,0,1,1.6-3.6,4.986,4.986,0,0,1,3.468-1.2,4.876,4.876,0,0,1,3.334,1.2,4.451,4.451,0,0,1,1.334,3.6Z" transform="translate(-141.795 -6.698)" fill="#fff"/>
        <path id="Path_56" data-name="Path 56" d="M156.439,42.835V38.167H148.97V62.84h7.6v-11.2c0-2,.533-3.468,1.6-4.268a7.77,7.77,0,0,1,4.668-1.334h2.134V37.9a8.707,8.707,0,0,0-4.8,1.334A12.034,12.034,0,0,0,156.439,42.835Z" transform="translate(-148.97 1.178)" fill="#fff"/>
        <path id="Path_57" data-name="Path 57" d="M181.675,39.467A13.118,13.118,0,0,0,175.14,38a14.725,14.725,0,0,0-6.535,1.467,11.075,11.075,0,0,0-4.535,4.4,13.339,13.339,0,0,0-1.6,6.669,13.339,13.339,0,0,0,1.6,6.669,11.976,11.976,0,0,0,4.535,4.4,13.119,13.119,0,0,0,6.535,1.467,14.724,14.724,0,0,0,6.535-1.467,11.976,11.976,0,0,0,4.535-4.4,13.339,13.339,0,0,0,1.6-6.669,13.339,13.339,0,0,0-1.6-6.669A9.666,9.666,0,0,0,181.675,39.467Zm-2.934,15.471a4.851,4.851,0,0,1-7.2,0,6.607,6.607,0,0,1-1.467-4.535,6.607,6.607,0,0,1,1.467-4.535,4.851,4.851,0,0,1,7.2,0,6.607,6.607,0,0,1,1.467,4.535C180.208,52.537,179.808,54,178.741,54.938Z" transform="translate(-144.465 1.211)" fill="#fff"/>
        <path id="Path_58" data-name="Path 58" d="M238.573,39.234a11.6,11.6,0,0,0-3.6,3.6V38.167h-7.6V62.84h7.6v-11.2c0-2,.534-3.468,1.6-4.268a7.77,7.77,0,0,1,4.668-1.334h2.134V37.9A9.983,9.983,0,0,0,238.573,39.234Z" transform="translate(-122.807 1.178)" fill="#fff"/>
      </g>
      <path id="Path_59" data-name="Path 59" d="M209.242,30.838a20.034,20.034,0,0,1-2.667,1.867,5.846,5.846,0,0,1-3.068.8,6.353,6.353,0,0,1-3.868-1.2,6.174,6.174,0,0,1-1.467-4h17.072a13.869,13.869,0,0,0,.267-2,13.582,13.582,0,0,0-1.467-6.268,10.943,10.943,0,0,0-4.268-4.268,14.7,14.7,0,0,0-12.8,0,11.623,11.623,0,0,0-4.4,4.4,13.339,13.339,0,0,0-1.6,6.669,13.339,13.339,0,0,0,1.6,6.669,11.623,11.623,0,0,0,4.4,4.4,14.912,14.912,0,0,0,7.069,1.467,13.99,13.99,0,0,0,5.868-1.2,14.776,14.776,0,0,0,4-2.934Zm-10.936-5.6a5.072,5.072,0,0,1,1.6-3.6,4.986,4.986,0,0,1,3.468-1.2,4.876,4.876,0,0,1,3.334,1.2,4.451,4.451,0,0,1,1.334,3.6Z" transform="translate(-134.954 -6.698)" fill="#fff"/>
      <path id="Path_60" data-name="Path 60" d="M224.242,54.138a20.033,20.033,0,0,1-2.667,1.867,5.846,5.846,0,0,1-3.068.8,6.353,6.353,0,0,1-3.868-1.2,6.174,6.174,0,0,1-1.467-4h17.072a13.868,13.868,0,0,0,.267-2,13.582,13.582,0,0,0-1.467-6.268,10.943,10.943,0,0,0-4.268-4.268,14.7,14.7,0,0,0-12.8,0,11.623,11.623,0,0,0-4.4,4.4,13.339,13.339,0,0,0-1.6,6.669,13.339,13.339,0,0,0,1.6,6.669,11.623,11.623,0,0,0,4.4,4.4,14.912,14.912,0,0,0,7.069,1.467,13.99,13.99,0,0,0,5.868-1.2,14.775,14.775,0,0,0,4-2.934Zm-10.936-5.6a5.072,5.072,0,0,1,1.6-3.6,4.986,4.986,0,0,1,3.468-1.2,4.876,4.876,0,0,1,3.334,1.2,4.451,4.451,0,0,1,1.334,3.6Z" transform="translate(-129.948 1.078)" fill="#fff"/>
    </g>
  </g>
</svg>
